<?xml version="1.0" encoding="UTF-8"?>
<!DOCTYPE svg PUBLIC "-//W3C//DTD SVG 1.1//EN" "http://www.w3.org/Graphics/SVG/1.1/DTD/svg11.dtd">
<svg xmlns="http://www.w3.org/2000/svg" version="1.1" width="235px" height="201px" style="shape-rendering:geometricPrecision; text-rendering:geometricPrecision; image-rendering:optimizeQuality; fill-rule:evenodd; clip-rule:evenodd" xmlns:xlink="http://www.w3.org/1999/xlink">
<g><path style="opacity:1" fill="#fefefe" d="M -0.5,-0.5 C 77.8333,-0.5 156.167,-0.5 234.5,-0.5C 234.5,66.5 234.5,133.5 234.5,200.5C 156.167,200.5 77.8333,200.5 -0.5,200.5C -0.5,133.5 -0.5,66.5 -0.5,-0.5 Z"/></g>
<g><path style="opacity:1" fill="#ebeff2" d="M 73.5,65.5 C 72.0821,67.3079 70.0821,67.9746 67.5,67.5C 67.4672,63.1311 67.8005,58.7978 68.5,54.5C 70.7873,50.8482 72.6206,46.8482 74,42.5C 75.3402,41.1322 76.6736,39.7989 78,38.5C 80.3193,39.4085 80.9859,41.0752 80,43.5C 75.6646,50.1715 73.498,57.5048 73.5,65.5 Z"/></g>
<g><path style="opacity:1" fill="#d19366" d="M 133.5,23.5 C 134.5,23.5 135.5,23.5 136.5,23.5C 136.667,38.5037 136.5,53.5037 136,68.5C 124.152,59.6389 112.652,50.4722 101.5,41C 110.057,31.2232 120.723,25.3898 133.5,23.5 Z"/></g>
<g><path style="opacity:1" fill="#fcf7f3" d="M 131.5,61.5 C 129.372,59.5975 127.039,57.9308 124.5,56.5C 124.362,53.3301 124.029,50.1634 123.5,47C 120.329,45.963 117.829,46.7964 116,49.5C 114.167,49 113,47.8333 112.5,46C 116.011,41.4047 120.678,38.5714 126.5,37.5C 127.451,38.9187 127.784,40.5853 127.5,42.5C 128.833,42.5 130.167,42.5 131.5,42.5C 132.035,39.7615 131.035,37.9282 128.5,37C 130.134,36.5065 131.801,36.3398 133.5,36.5C 134.135,45.2337 133.468,53.5671 131.5,61.5 Z"/></g>
<g><path style="opacity:1" fill="#fdf6f1" d="M 127.5,27.5 C 129.5,27.5 131.5,27.5 133.5,27.5C 133.5,29.1667 133.5,30.8333 133.5,32.5C 124.592,33.2876 116.925,36.7876 110.5,43C 108.305,43.7117 106.638,43.0451 105.5,41C 111.809,34.6861 119.142,30.1861 127.5,27.5 Z"/></g>
<g><path style="opacity:1" fill="#e8bfa4" d="M 131.5,61.5 C 133.468,53.5671 134.135,45.2337 133.5,36.5C 131.801,36.3398 130.134,36.5065 128.5,37C 131.035,37.9282 132.035,39.7615 131.5,42.5C 130.167,42.5 128.833,42.5 127.5,42.5C 127.784,40.5853 127.451,38.9187 126.5,37.5C 126.611,36.8826 126.944,36.3826 127.5,36C 129.81,35.5034 132.143,35.3367 134.5,35.5C 134.5,44.5 134.5,53.5 134.5,62.5C 133.209,62.7373 132.209,62.404 131.5,61.5 Z"/></g>
<g><path style="opacity:1" fill="#99a7b5" d="M 153.5,46.5 C 150.918,46.0254 148.918,46.6921 147.5,48.5C 146.596,47.791 146.263,46.791 146.5,45.5C 149.059,45.1984 151.393,45.5318 153.5,46.5 Z"/></g>
<g><path style="opacity:1" fill="#eff1f4" d="M 87.5,59.5 C 85.7768,58.193 83.9435,58.193 82,59.5C 81.5034,61.8098 81.3367,64.1432 81.5,66.5C 79.2646,66.7947 77.2646,66.4614 75.5,65.5C 75.598,57.2038 78.2647,49.8705 83.5,43.5C 90.1667,49.5 96.5,55.8333 102.5,62.5C 98.2506,63.7261 93.9173,64.3927 89.5,64.5C 89.8799,62.302 89.2132,60.6354 87.5,59.5 Z"/></g>
<g><path style="opacity:1" fill="#405976" d="M 105.5,65.5 C 100.586,65.3618 95.9192,66.0285 91.5,67.5C 90.5,67.5 89.5,67.5 88.5,67.5C 87.7703,65.955 86.437,65.1216 84.5,65C 87.0352,64.0718 88.0352,62.2385 87.5,59.5C 89.2132,60.6354 89.8799,62.302 89.5,64.5C 93.9173,64.3927 98.2506,63.7261 102.5,62.5C 96.5,55.8333 90.1667,49.5 83.5,43.5C 78.2647,49.8705 75.598,57.2038 75.5,65.5C 74.8333,65.5 74.1667,65.5 73.5,65.5C 73.498,57.5048 75.6646,50.1715 80,43.5C 80.9859,41.0752 80.3193,39.4085 78,38.5C 76.6736,39.7989 75.3402,41.1322 74,42.5C 72.6206,46.8482 70.7873,50.8482 68.5,54.5C 68.5654,54.0618 68.3988,53.7284 68,53.5C 67.7216,54.4158 67.2216,55.0825 66.5,55.5C 68.5445,47.411 72.2112,40.0776 77.5,33.5C 88.1667,43.5 98.5,53.8333 108.5,64.5C 107.675,65.3857 106.675,65.719 105.5,65.5 Z"/></g>
<g><path style="opacity:1" fill="#51637d" d="M 83.5,47.5 C 86.9563,48.5362 87.2896,50.2029 84.5,52.5C 82.2957,51.218 81.9624,49.5514 83.5,47.5 Z"/></g>
<g><path style="opacity:1" fill="#3c5574" d="M 153.5,46.5 C 165.267,46.9749 175.601,50.9749 184.5,58.5C 174.5,69.1667 164.167,79.5 153.5,89.5C 151.873,81.1783 150.54,72.845 149.5,64.5C 149.556,59.2688 148.889,54.2688 147.5,49.5C 147.5,49.1667 147.5,48.8333 147.5,48.5C 148.918,46.6921 150.918,46.0254 153.5,46.5 Z"/></g>
<g><path style="opacity:1" fill="#edf0f3" d="M 150.5,48.5 C 161.449,49.2811 171.449,52.7811 180.5,59C 179.315,60.353 177.981,61.5197 176.5,62.5C 168.606,57.3592 159.939,54.6925 150.5,54.5C 150.5,52.5 150.5,50.5 150.5,48.5 Z"/></g>
<g><path style="opacity:1" fill="#acb9c5" d="M 147.5,49.5 C 148.889,54.2688 149.556,59.2688 149.5,64.5C 147.969,59.7498 147.302,54.7498 147.5,49.5 Z"/></g>
<g><path style="opacity:1" fill="#f0f2f5" d="M 151.5,56.5 C 159.867,56.8961 167.201,59.7294 173.5,65C 168.045,71.4569 162.212,77.6236 156,83.5C 154.314,79.3957 153.481,75.0623 153.5,70.5C 157.805,70.1576 159.305,67.8243 158,63.5C 155.959,62.5769 153.792,62.2436 151.5,62.5C 151.5,60.5 151.5,58.5 151.5,56.5 Z"/></g>
<g><path style="opacity:1" fill="#56687e" d="M 166.5,63.5 C 167.5,63.5 168.5,63.5 169.5,63.5C 169.5,64.8333 169.5,66.1667 169.5,67.5C 166.046,67.7332 165.046,66.3999 166.5,63.5 Z"/></g>
<g><path style="opacity:1" fill="#bec6d0" d="M 105.5,65.5 C 101.1,67.1042 96.4338,67.7709 91.5,67.5C 95.9192,66.0285 100.586,65.3618 105.5,65.5 Z"/></g>
<g><path style="opacity:1" fill="#314c6b" d="M 68.5,54.5 C 67.8005,58.7978 67.4672,63.1311 67.5,67.5C 70.0821,67.9746 72.0821,67.3079 73.5,65.5C 74.1667,65.5 74.8333,65.5 75.5,65.5C 77.2646,66.4614 79.2646,66.7947 81.5,66.5C 81.3367,64.1432 81.5034,61.8098 82,59.5C 83.9435,58.193 85.7768,58.193 87.5,59.5C 88.0352,62.2385 87.0352,64.0718 84.5,65C 86.437,65.1216 87.7703,65.955 88.5,67.5C 82.1084,68.2832 75.7751,69.2832 69.5,70.5C 68.1667,70.5 66.8333,70.5 65.5,70.5C 65.5,68.1667 65.5,65.8333 65.5,63.5C 65.4013,60.7628 65.7347,58.0961 66.5,55.5C 67.2216,55.0825 67.7216,54.4158 68,53.5C 68.3988,53.7284 68.5654,54.0618 68.5,54.5 Z"/></g>
<g><path style="opacity:1" fill="#afb9c8" d="M 65.5,63.5 C 65.5,65.8333 65.5,68.1667 65.5,70.5C 66.8333,70.5 68.1667,70.5 69.5,70.5C 68.0813,71.4511 66.4147,71.7845 64.5,71.5C 64.1936,68.6146 64.5269,65.9479 65.5,63.5 Z"/></g>
<g><path style="opacity:1" fill="#f8ebe2" d="M 87.5,81.5 C 72.8333,81.5 58.1667,81.5 43.5,81.5C 43.5524,85.1981 43.8857,88.8648 44.5,92.5C 42.7501,88.8171 42.0834,84.8171 42.5,80.5C 57.676,80.1706 72.676,80.5039 87.5,81.5 Z"/></g>
<g><path style="opacity:1" fill="#d29364" d="M 87.5,81.5 C 82.8504,88.1451 77.8504,94.4784 72.5,100.5C 72.8333,96.1667 70.8333,94.1667 66.5,94.5C 66.2525,96.8583 66.9192,98.8583 68.5,100.5C 69.2223,101.551 70.2223,102.218 71.5,102.5C 67.8571,107.148 64.1904,111.815 60.5,116.5C 53.1473,109.78 47.814,101.78 44.5,92.5C 43.8857,88.8648 43.5524,85.1981 43.5,81.5C 58.1667,81.5 72.8333,81.5 87.5,81.5 Z"/></g>
<g><path style="opacity:1" fill="#284a6e" d="M 133.5,127.5 C 126.386,129.927 119.053,130.927 111.5,130.5C 91.8585,123.835 84.0252,110.168 88,89.5C 99.2066,67.8274 115.707,62.6607 137.5,74C 151.931,88.0656 153.431,103.566 142,120.5C 139.004,122.733 136.171,125.066 133.5,127.5 Z"/></g>
<g><path style="opacity:1" fill="#e8ecf0" d="M 121.5,80.5 C 124.777,80.2161 127.943,80.5495 131,81.5C 131.635,83.6354 131.301,85.6354 130,87.5C 127.265,89.7319 125.098,92.3986 123.5,95.5C 125.766,96.3142 128.1,96.8142 130.5,97C 129.833,97.6667 129.167,98.3333 128.5,99C 125.833,99.3333 123.167,99.6667 120.5,100C 116.262,105.364 112.762,111.198 110,117.5C 108.414,118.376 106.914,119.376 105.5,120.5C 104.417,119.635 104.251,118.635 105,117.5C 107.96,112.414 110.794,107.247 113.5,102C 111.527,101.505 109.527,101.338 107.5,101.5C 107.5,100.167 107.5,98.8333 107.5,97.5C 110.91,97.5429 114.243,97.0429 117.5,96C 120.08,92.8416 122.413,89.5082 124.5,86C 118.585,86.8144 112.585,87.3144 106.5,87.5C 106.5,86.5 106.5,85.5 106.5,84.5C 111.838,84.0206 116.838,82.6873 121.5,80.5 Z"/></g>
<g><path style="opacity:1" fill="#dfb494" d="M 54.5,84.5 C 63.3178,83.5067 72.3178,83.1734 81.5,83.5C 81.7373,84.791 81.404,85.791 80.5,86.5C 72.2312,84.5302 63.5645,83.8636 54.5,84.5 Z"/></g>
<g><path style="opacity:1" fill="#fcf6f1" d="M 46.5,84.5 C 48.1667,84.5 49.8333,84.5 51.5,84.5C 53.1274,93.5878 56.7941,101.754 62.5,109C 62.2753,110.621 61.442,111.788 60,112.5C 52.1635,104.849 47.6635,95.5158 46.5,84.5 Z"/></g>
<g><path style="opacity:1" fill="#fdf8f4" d="M 54.5,84.5 C 63.5645,83.8636 72.2312,84.5302 80.5,86.5C 78.3336,88.8367 76.3336,91.3367 74.5,94C 72.4153,94.5288 70.582,94.0288 69,92.5C 65.6413,93.2293 64.308,95.2293 65,98.5C 65.8159,99.8228 66.9826,100.489 68.5,100.5C 68.067,104.131 66.2337,105.464 63,104.5C 58.2397,98.6467 55.4064,91.9801 54.5,84.5 Z"/></g>
<g><path style="opacity:1" fill="#cf986e" d="M 58.5,86.5 C 59.9953,86.4148 60.9953,87.0815 61.5,88.5C 60.6798,90.1112 59.3464,90.7778 57.5,90.5C 57.4326,89.0413 57.7659,87.7079 58.5,86.5 Z"/></g>
<g><path style="opacity:1" fill="#d7884c" d="M 72.5,100.5 C 72.1667,101.167 71.8333,101.833 71.5,102.5C 70.2223,102.218 69.2223,101.551 68.5,100.5C 66.9192,98.8583 66.2525,96.8583 66.5,94.5C 70.8333,94.1667 72.8333,96.1667 72.5,100.5 Z"/></g>
<g><path style="opacity:1" fill="#d29263" d="M 193.5,117.5 C 178.99,117.829 164.657,117.496 150.5,116.5C 158.79,104.877 167.457,93.5434 176.5,82.5C 187.241,91.6492 192.907,103.316 193.5,117.5 Z"/></g>
<g><path style="opacity:1" fill="#faf2eb" d="M 170.5,93.5 C 171.552,93.3505 172.552,93.5172 173.5,94C 178.925,100.096 181.925,107.262 182.5,115.5C 173.475,115.832 164.475,115.498 155.5,114.5C 157.957,111.086 160.291,107.586 162.5,104C 164.258,104.344 166.091,104.844 168,105.5C 170.5,105.667 171.667,104.5 171.5,102C 170.756,100.145 169.756,98.4788 168.5,97C 168.978,95.6974 169.645,94.5307 170.5,93.5 Z"/></g>
<g><path style="opacity:1" fill="#d3a888" d="M 175.5,108.5 C 176.833,108.5 178.167,108.5 179.5,108.5C 179.5,109.833 179.5,111.167 179.5,112.5C 178.167,112.5 176.833,112.5 175.5,112.5C 175.5,111.167 175.5,109.833 175.5,108.5 Z"/></g>
<g><path style="opacity:1" fill="#fbf4ee" d="M 175.5,86.5 C 179.056,88.2177 181.89,90.8843 184,94.5C 188.488,100.802 190.655,107.802 190.5,115.5C 188.833,115.5 187.167,115.5 185.5,115.5C 184.74,106.642 181.24,98.9753 175,92.5C 174.322,90.4024 174.489,88.4024 175.5,86.5 Z"/></g>
<g><path style="opacity:1" fill="#eceff3" d="M 83.5,128.5 C 77.5123,128.664 76.179,131.164 79.5,136C 81.4727,136.495 83.4727,136.662 85.5,136.5C 85.5,138.5 85.5,140.5 85.5,142.5C 82.1401,142.384 78.8067,142.051 75.5,141.5C 71.6904,139.602 67.6904,137.769 63.5,136C 62.9781,135.439 62.6448,134.772 62.5,134C 68.3719,127.39 74.7052,121.223 81.5,115.5C 82.7261,119.749 83.3927,124.083 83.5,128.5 Z"/></g>
<g><path style="opacity:1" fill="#f2dfd1" d="M 150.5,116.5 C 164.657,117.496 178.99,117.829 193.5,117.5C 178.995,118.826 164.328,118.826 149.5,117.5C 149.624,116.893 149.957,116.56 150.5,116.5 Z"/></g>
<g><path style="opacity:1" fill="#c2ccd6" d="M 133.5,127.5 C 131.615,129.311 129.281,130.478 126.5,131C 121.316,131.816 116.316,131.65 111.5,130.5C 119.053,130.927 126.386,129.927 133.5,127.5 Z"/></g>
<g><path style="opacity:1" fill="#7e8ea2" d="M 171.5,132.5 C 171.5,131.5 171.5,130.5 171.5,129.5C 164.456,129.756 157.456,130.422 150.5,131.5C 157.51,129.205 164.844,128.205 172.5,128.5C 172.768,130.099 172.434,131.432 171.5,132.5 Z"/></g>
<g><path style="opacity:1" fill="#2f4d6f" d="M 86.5,126.5 C 87.1266,131.141 87.4599,135.807 87.5,140.5C 87.8432,142.483 87.1765,143.817 85.5,144.5C 81.7852,144.577 78.1185,144.244 74.5,143.5C 74.3284,142.508 74.6618,141.842 75.5,141.5C 78.8067,142.051 82.1401,142.384 85.5,142.5C 85.5,140.5 85.5,138.5 85.5,136.5C 83.4727,136.662 81.4727,136.495 79.5,136C 76.179,131.164 77.5123,128.664 83.5,128.5C 84.2679,127.737 84.7679,126.737 85,125.5C 85.3826,126.056 85.8826,126.389 86.5,126.5 Z"/></g>
<g><path style="opacity:1" fill="#46627d" d="M 67.5,131.5 C 68.5,131.5 69.5,131.5 70.5,131.5C 70.5,132.833 70.5,134.167 70.5,135.5C 69.1667,135.5 67.8333,135.5 66.5,135.5C 66.4326,134.041 66.7659,132.708 67.5,131.5 Z"/></g>
<g><path style="opacity:1" fill="#435b76" d="M 86.5,126.5 C 85.8826,126.389 85.3826,126.056 85,125.5C 84.7679,126.737 84.2679,127.737 83.5,128.5C 83.3927,124.083 82.7261,119.749 81.5,115.5C 74.7052,121.223 68.3719,127.39 62.5,134C 62.6448,134.772 62.9781,135.439 63.5,136C 67.6904,137.769 71.6904,139.602 75.5,141.5C 74.6618,141.842 74.3284,142.508 74.5,143.5C 69.3728,142.461 64.7061,140.461 60.5,137.5C 58.6031,137.728 57.2697,138.728 56.5,140.5C 65.4852,146.828 75.4852,150.162 86.5,150.5C 86.6747,148.379 86.3414,146.379 85.5,144.5C 87.1765,143.817 87.8432,142.483 87.5,140.5C 88.7089,144.618 89.3755,148.951 89.5,153.5C 78.8658,153.508 68.8658,151.008 59.5,146C 56.9989,144.327 54.6655,142.493 52.5,140.5C 62.5,129.833 72.8333,119.5 83.5,109.5C 85.1529,115.03 86.1529,120.697 86.5,126.5 Z"/></g>
<g><path style="opacity:1" fill="#eaeef2" d="M 74.5,143.5 C 78.1185,144.244 81.7852,144.577 85.5,144.5C 86.3414,146.379 86.6747,148.379 86.5,150.5C 75.4852,150.162 65.4852,146.828 56.5,140.5C 57.2697,138.728 58.6031,137.728 60.5,137.5C 64.7061,140.461 69.3728,142.461 74.5,143.5 Z"/></g>
<g><path style="opacity:1" fill="#fbeade" d="M 102.5,131.5 C 100.517,145.461 99.8505,159.794 100.5,174.5C 104.198,174.448 107.865,174.114 111.5,173.5C 111.082,174.222 110.416,174.722 109.5,175C 106.183,175.498 102.85,175.665 99.5,175.5C 99.5,160.5 99.5,145.5 99.5,130.5C 100.791,130.263 101.791,130.596 102.5,131.5 Z"/></g>
<g><path style="opacity:1" fill="#3c5673" d="M 171.5,132.5 C 171.018,144.749 167.018,155.749 159.5,165.5C 148.833,155.5 138.5,145.167 128.5,134.5C 135.726,132.771 143.059,131.771 150.5,131.5C 157.456,130.422 164.456,129.756 171.5,129.5C 171.5,130.5 171.5,131.5 171.5,132.5 Z"/></g>
<g><path style="opacity:1" fill="#a4b2c0" d="M 141.5,134.5 C 139.485,135.924 137.152,136.59 134.5,136.5C 136.515,135.076 138.848,134.41 141.5,134.5 Z"/></g>
<g><path style="opacity:1" fill="#eff1f4" d="M 134.5,136.5 C 137.152,136.59 139.485,135.924 141.5,134.5C 143.5,134.5 145.5,134.5 147.5,134.5C 147.664,140.488 150.164,141.821 155,138.5C 155.495,136.527 155.662,134.527 155.5,132.5C 157.167,132.5 158.833,132.5 160.5,132.5C 161.28,141.324 158.78,148.991 153,155.5C 145.982,149.982 139.815,143.648 134.5,136.5 Z"/></g>
<g><path style="opacity:1" fill="#455c75" d="M 150.5,147.5 C 151.833,147.5 153.167,147.5 154.5,147.5C 154.778,149.346 154.111,150.68 152.5,151.5C 150.889,150.68 150.222,149.346 150.5,147.5 Z"/></g>
<g><path style="opacity:1" fill="#eceff3" d="M 164.5,131.5 C 166.167,131.5 167.833,131.5 169.5,131.5C 168.862,137.256 167.695,142.923 166,148.5C 164.13,152.896 162.297,157.229 160.5,161.5C 157.679,161.684 156.012,160.351 155.5,157.5C 160.648,149.577 163.648,140.91 164.5,131.5 Z"/></g>
<g><path style="opacity:1" fill="#d09163" d="M 102.5,131.5 C 113.221,141.038 124.554,149.871 136.5,158C 128.999,164.739 120.665,169.905 111.5,173.5C 107.865,174.114 104.198,174.448 100.5,174.5C 99.8505,159.794 100.517,145.461 102.5,131.5 Z"/></g>
<g><path style="opacity:1" fill="#fcf4ee" d="M 125.5,155.5 C 132.239,156.04 132.905,158.206 127.5,162C 119.829,167.171 111.496,170.671 102.5,172.5C 102.261,170.533 102.594,168.699 103.5,167C 112.39,165.889 119.723,162.055 125.5,155.5 Z"/></g>
<g><path style="opacity:1" fill="#efcbb0" d="M 105.5,137.5 C 103.53,145.769 102.864,154.435 103.5,163.5C 102.507,154.682 102.173,145.682 102.5,136.5C 103.791,136.263 104.791,136.596 105.5,137.5 Z"/></g>
<g><path style="opacity:1" fill="#fcf7f4" d="M 105.5,137.5 C 107.812,139.636 110.312,141.636 113,143.5C 113.063,145.379 112.563,147.213 111.5,149C 111.703,151.703 113.203,153.203 116,153.5C 117.37,151.797 119.036,150.464 121,149.5C 122.833,150 124,151.167 124.5,153C 120.951,157.08 116.617,160.08 111.5,162C 108.832,162.567 106.166,163.067 103.5,163.5C 102.864,154.435 103.53,145.769 105.5,137.5 Z"/></g>
<g><path style="opacity:1" fill="#c99a7b" d="M 105.5,157.5 C 106.833,157.5 108.167,157.5 109.5,157.5C 109.5,158.5 109.5,159.5 109.5,160.5C 108.167,160.5 106.833,160.5 105.5,160.5C 105.5,159.5 105.5,158.5 105.5,157.5 Z"/></g>
</svg>
